<svg width="26" height="19" viewBox="0 0 26 19" fill="none" xmlns="http://www.w3.org/2000/svg">
<path d="M13.5042 15.629L17.4244 6.6764C17.7833 5.8568 18.5887 5.32315 19.4834 5.31217L21.6788 5.28525C21.7181 5.28477 21.7497 5.25262 21.7494 5.21332V5.21332C21.7491 5.17373 21.7167 5.14192 21.6771 5.14241L20.3045 5.15924C19.2604 5.17205 18.5516 4.10227 18.9704 3.14576L19.8454 1.14763C19.865 1.10278 19.8511 1.05031 19.8118 1.02108V1.02108C19.7935 1.0074 19.7711 1.0001 19.7482 1.00029L1.83554 1.1423C1.79619 1.14261 1.7645 1.1747 1.76468 1.21406V1.21406C1.76487 1.2536 1.79714 1.28546 1.83668 1.28515L16.7999 1.16652C18.2299 1.15518 19.2446 2.55667 18.7876 3.91164V3.91164C18.5023 4.75727 17.7094 5.32672 16.817 5.32696L4.63948 5.33019C4.63445 5.3302 4.62945 5.33095 4.62465 5.33244V5.33244C4.56937 5.34954 4.58202 5.43114 4.63988 5.4307L15.495 5.34824C16.7404 5.33878 17.5461 6.66065 16.967 7.76325L16.3679 8.9039C15.9387 9.72122 15.0819 10.2232 14.159 10.198L6.96932 10.002C6.9295 10.0009 6.89674 10.0331 6.8971 10.0729V10.0729C6.89746 10.1116 6.929 10.1427 6.96768 10.1426L11.964 10.1229C13.7179 10.116 15.0494 11.6999 14.7411 13.4264V13.4264C14.4999 14.7771 13.3185 15.756 11.9466 15.7421L5.95255 15.6811C5.93163 15.6809 5.91488 15.6638 5.91488 15.6429V15.6429C5.91488 14.341 5.10814 13.2857 4.11297 13.2857C3.1178 13.2857 2.31105 14.341 2.31105 15.6429V15.6429C2.31105 15.6772 2.28357 15.7055 2.24919 15.7058L1.07122 15.7138C1.03185 15.7141 1.00012 15.7461 1.00028 15.7855V15.7855C1.00044 15.825 1.03267 15.8569 1.0722 15.8567L1.67956 15.8525C2.03798 15.8501 2.32734 16.1316 2.42681 16.4759C2.6841 17.3666 3.34199 18 4.11297 18V18C5.86558 18 7.25698 15.7891 9.00902 15.7442L13.5042 15.629ZM13.5042 15.629V15.629C15.2373 15.6035 16.579 13.4255 18.3071 13.2901C18.3441 13.2872 18.3815 13.2857 18.4191 13.2857C19.2422 13.2857 19.9364 14.0077 20.1519 14.994C20.2221 15.3156 20.4852 15.5813 20.8144 15.5791L22.6857 15.5663C22.6978 15.5662 22.7026 15.5506 22.6926 15.5438V15.5438C22.6878 15.5405 22.686 15.5343 22.6881 15.529L24.8467 10.164C24.8579 10.1361 24.8921 10.1258 24.9169 10.1429V10.1429M13.5042 15.629L13.4357 15.7853V15.7853C13.4392 15.7774 13.447 15.7722 13.4557 15.7722L14.7129 15.7636C15.774 15.7563 16.5627 16.7226 17.2976 17.488C17.6054 17.8085 17.9951 18 18.4191 18C18.9572 18 19.4402 17.6915 19.7704 17.2022C20.2581 16.4796 20.9116 15.7213 21.7834 15.7153L22.806 15.7084C22.8278 15.7082 22.8475 15.6951 22.8561 15.6751L22.9917 15.3581C23.0043 15.3287 22.9631 15.3068 22.9458 15.3338V15.3338C22.9287 15.3604 22.8879 15.3393 22.8997 15.3099L24.9433 10.2305C24.9561 10.1987 24.9452 10.1623 24.9169 10.1429V10.1429M24.9169 10.1429V10.1429C24.9468 10.0846 24.9432 10.0148 24.9074 9.95997L21.841 5.25705C21.8194 5.22399 21.7724 5.22039 21.746 5.24978V5.24978C21.7278 5.27008 21.7256 5.30009 21.7406 5.32285L24.9169 10.1429Z" stroke="black" stroke-width="2"/>
</svg>
